<?xml version="1.0" encoding="UTF-8" standalone="no"?>
<svg
   xmlns:dc="http://purl.org/dc/elements/1.1/"
   xmlns:cc="http://creativecommons.org/ns#"
   xmlns:rdf="http://www.w3.org/1999/02/22-rdf-syntax-ns#"
   xmlns:svg="http://www.w3.org/2000/svg"
   xmlns="http://www.w3.org/2000/svg"
   xmlns:sodipodi="http://sodipodi.sourceforge.net/DTD/sodipodi-0.dtd"
   xmlns:inkscape="http://www.inkscape.org/namespaces/inkscape"
   id="Endunav"
   width="264.583"
   height="264.583"
   viewBox="0 0 264.583 264.583"
   version="1.1"
   sodipodi:docname="Endunav.svg"
   inkscape:version="1.0.2 (e86c870879, 2021-01-15)">
  <metadata
     id="metadata9">
    <rdf:RDF>
      <cc:Work
         rdf:about="">
        <dc:format>image/svg+xml</dc:format>
        <dc:type
           rdf:resource="http://purl.org/dc/dcmitype/StillImage" />
      </cc:Work>
    </rdf:RDF>
  </metadata>
  <defs
     id="defs7" />
  <sodipodi:namedview
     pagecolor="#ffffff"
     bordercolor="#666666"
     borderopacity="1"
     objecttolerance="10"
     gridtolerance="10"
     guidetolerance="10"
     inkscape:pageopacity="0"
     inkscape:pageshadow="2"
     inkscape:window-width="1920"
     inkscape:window-height="1017"
     id="namedview5"
     showgrid="false"
     inkscape:zoom="3.2126024"
     inkscape:cx="132.2915"
     inkscape:cy="144.74247"
     inkscape:window-x="-8"
     inkscape:window-y="-8"
     inkscape:window-maximized="1"
     inkscape:current-layer="Endunav" />
  <path
     id="Soustraction_1"
     data-name="Soustraction 1"
     d="M-242.583-122.417h-222.25a21.036,21.036,0,0,1-8.239-1.663,21.1,21.1,0,0,1-6.728-4.536,21.1,21.1,0,0,1-4.536-6.728A21.033,21.033,0,0,1-486-143.583v-222.25a21.034,21.034,0,0,1,1.663-8.239A21.1,21.1,0,0,1-479.8-380.8a21.1,21.1,0,0,1,6.728-4.536A21.034,21.034,0,0,1-464.833-387h222.25a21.033,21.033,0,0,1,8.239,1.663,21.1,21.1,0,0,1,6.728,4.536,21.1,21.1,0,0,1,4.536,6.728,21.036,21.036,0,0,1,1.663,8.239v222.25a21.035,21.035,0,0,1-1.663,8.239,21.094,21.094,0,0,1-4.536,6.728,21.1,21.1,0,0,1-6.728,4.536A21.035,21.035,0,0,1-242.583-122.417Zm-111.125-190.5a57.845,57.845,0,0,0-22.658,4.574,58.209,58.209,0,0,0-9.888,5.367,58.626,58.626,0,0,0-8.615,7.108,58.626,58.626,0,0,0-7.108,8.615,58.209,58.209,0,0,0-5.367,9.888,57.845,57.845,0,0,0-4.574,22.658V-196.5h58.208a57.842,57.842,0,0,0,22.657-4.574,58.214,58.214,0,0,0,9.888-5.367,58.629,58.629,0,0,0,8.615-7.108,58.63,58.63,0,0,0,7.108-8.615,58.213,58.213,0,0,0,5.367-9.888,57.842,57.842,0,0,0,4.574-22.657,57.843,57.843,0,0,0-4.574-22.658,58.21,58.21,0,0,0-5.367-9.888,58.627,58.627,0,0,0-7.108-8.615,58.628,58.628,0,0,0-8.615-7.108,58.212,58.212,0,0,0-9.888-5.367A57.843,57.843,0,0,0-353.708-312.917Z"
     transform="translate(486 387)" />
  <rect
     id="rect845"
     width="26.458"
     height="26.458"
     transform="translate(238.125 0)" />
  <path
     style="fill:#ff6601;stroke-width:0;fill-opacity:1;stroke:none"
     d="M 18.937838,264.26606 C 10.84141,263.4051 3.799289,257.63821 1.2146569,249.75231 L 0.31127413,246.99602 V 132.2915 17.586988 L 1.2146569,14.8307 C 3.4454535,8.0243756 8.9565339,2.8241049 16.186255,0.70346051 17.953006,0.18523126 24.708748,0.15122653 141.24294,0.07399307 l 123.18904,-0.08164402 -0.0801,123.65747095 -0.0801,123.65747 -0.9128,2.61508 c -2.36005,6.76131 -7.83533,11.86857 -14.96218,13.95651 -1.7656,0.51727 -8.02416,0.54927 -114.54888,0.58567 -61.974674,0.0212 -113.684191,-0.0681 -114.910032,-0.19849 z M 143.48034,189.61822 c 18.267,-3.86441 32.84701,-14.99636 41.04126,-31.33533 10.15772,-20.25404 7.45296,-45.0137 -6.85177,-62.721733 -2.42668,-3.004026 -7.37904,-7.777396 -10.35999,-9.985571 -7.02216,-5.201752 -14.63372,-8.621771 -23.32739,-10.481459 -3.62794,-0.776063 -4.45759,-0.836889 -11.53531,-0.845726 -6.75796,-0.0084 -8.03022,0.0723 -11.17472,0.709176 -18.18322,3.682737 -32.984846,14.939935 -41.211009,31.342533 -3.048992,6.07956 -5.121707,13.22798 -5.808459,20.03235 -0.20212,2.00259 -0.325347,14.76865 -0.325347,33.70488 v 30.48134 l 33.072875,-0.0898 33.07288,-0.0899 z"
     id="path834" />
</svg>
